<svg t="1661655184694" class="icon" viewBox="0 0 1140 1024" version="1.1" xmlns="http://www.w3.org/2000/svg" p-id="5275" width="32" height="32"><path d="M3.132004 995.918816c0 7.878308 3.290694 15.708224 9.717226 21.254011 11.730356 10.133401 29.45171 8.836481 39.585111-2.893875L542.012158 447.398865l489.577817 566.880087c10.133401 11.730356 27.854756 13.027276 39.585111 2.893875 11.730356-10.133401 13.027276-27.854756 2.893875-39.585112L563.266169 386.104852c-5.33286-6.17489-13.085347-9.717225-21.244332-9.717225s-15.911473 3.552014-21.244333 9.717225L9.955355 977.587715a27.95638 27.95638 0 0 0-6.823351 18.331101z" p-id="5276" fill="#bfbfbf"></path><path d="M3.132004 619.52151c0 7.878308 3.290694 15.708224 9.717226 21.254011 11.730356 10.133401 29.45171 8.836481 39.585111-2.893875L542.021837 71.001559l489.577817 566.880087c10.133401 11.730356 27.854756 13.027276 39.585111 2.893875 11.730356-10.133401 13.027276-27.854756 2.893875-39.585111L563.266169 9.717225c-5.33286-6.17489-13.085347-9.717225-21.244332-9.717225s-15.911473 3.552014-21.244333 9.717225L9.955355 601.19041a27.974769 27.974769 0 0 0-6.823351 18.3311z" p-id="5277" fill="#bfbfbf"></path></svg>